<svg width="154" height="42" viewBox="0 0 154 42" fill="none" xmlns="http://www.w3.org/2000/svg">
<path d="M17 7.57143L14 2L11 7.57143M17 7.57143L13 15L17 22.4285M17 7.57143L20 2L27 15L20 28L17 22.4285M11 7.57143L8 2L0.999999 15L8 28L11 22.4285M11 7.57143L7 15L11 22.4285M17 22.4285L14 28L11 22.4285" stroke="white" stroke-width="1.33333"/>
<path d="M44.6094 16.7207V15.1875H38.6914V10.3242H45.5957V8.78125H36.8652V23H38.6914V16.7207H44.6094ZM55.6543 23H57.5391V22.8438C57.4219 22.5508 57.3307 22.209 57.2656 21.8184C57.2005 21.4212 57.168 21.0469 57.168 20.6953V15.7832C57.168 15.1908 57.0605 14.6732 56.8457 14.2305C56.6309 13.7878 56.3379 13.4167 55.9668 13.1172C55.5892 12.8242 55.1432 12.6061 54.6289 12.4629C54.1146 12.3132 53.5579 12.2383 52.959 12.2383C52.3014 12.2383 51.7122 12.3294 51.1914 12.5117C50.6771 12.694 50.2409 12.9316 49.8828 13.2246C49.5182 13.5241 49.2383 13.8594 49.043 14.2305C48.8542 14.6016 48.7565 14.9792 48.75 15.3633H50.5664C50.5664 15.1419 50.6185 14.9303 50.7227 14.7285C50.8333 14.5202 50.9863 14.3411 51.1816 14.1914C51.377 14.0417 51.6146 13.9212 51.8945 13.8301C52.181 13.7389 52.5033 13.6934 52.8613 13.6934C53.2454 13.6934 53.5905 13.7422 53.8965 13.8398C54.209 13.9375 54.4727 14.0742 54.6875 14.25C54.9023 14.4323 55.0684 14.6504 55.1855 14.9043C55.3027 15.1582 55.3613 15.4447 55.3613 15.7637V16.5938H53.3887C52.653 16.5938 51.9857 16.6654 51.3867 16.8086C50.7943 16.9518 50.2865 17.1667 49.8633 17.4531C49.4401 17.7461 49.1113 18.1107 48.877 18.5469C48.6491 18.9831 48.5352 19.4909 48.5352 20.0703C48.5352 20.513 48.6198 20.9264 48.7891 21.3105C48.9648 21.6882 49.2122 22.0137 49.5312 22.2871C49.8438 22.5671 50.2246 22.7884 50.6738 22.9512C51.1296 23.1139 51.6374 23.1953 52.1973 23.1953C52.5423 23.1953 52.8678 23.1595 53.1738 23.0879C53.4798 23.0163 53.7695 22.9186 54.043 22.7949C54.3099 22.6712 54.554 22.528 54.7754 22.3652C55.0033 22.2025 55.2083 22.0299 55.3906 21.8477C55.4102 22.069 55.4395 22.2839 55.4785 22.4922C55.5241 22.694 55.5827 22.8633 55.6543 23ZM52.4609 21.623C52.1094 21.623 51.8001 21.5775 51.5332 21.4863C51.2663 21.3952 51.0449 21.2682 50.8691 21.1055C50.6934 20.9492 50.5599 20.7604 50.4688 20.5391C50.3841 20.3177 50.3418 20.0768 50.3418 19.8164C50.3418 19.543 50.3906 19.2988 50.4883 19.084C50.5924 18.8691 50.7422 18.6836 50.9375 18.5273C51.2109 18.306 51.5788 18.1432 52.041 18.0391C52.5098 17.9284 53.0566 17.873 53.6816 17.873H55.3613V20.0117C55.2572 20.2201 55.1139 20.4219 54.9316 20.6172C54.7493 20.806 54.5345 20.9753 54.2871 21.125C54.0332 21.2747 53.7533 21.3952 53.4473 21.4863C53.1413 21.5775 52.8125 21.623 52.4609 21.623ZM65.2246 21.7305C64.6582 21.7305 64.1829 21.6198 63.7988 21.3984C63.4212 21.1706 63.1185 20.8743 62.8906 20.5098C62.6562 20.1517 62.487 19.748 62.3828 19.2988C62.2852 18.8431 62.2363 18.3841 62.2363 17.9219V17.5117C62.2363 17.056 62.2852 16.6035 62.3828 16.1543C62.487 15.7051 62.6562 15.2982 62.8906 14.9336C63.125 14.5755 63.431 14.2858 63.8086 14.0645C64.1927 13.8366 64.6647 13.7227 65.2246 13.7227C65.5892 13.7227 65.9277 13.7845 66.2402 13.9082C66.5592 14.0319 66.8327 14.2012 67.0605 14.416C67.2884 14.6309 67.4674 14.8815 67.5977 15.168C67.7344 15.4479 67.806 15.7474 67.8125 16.0664H69.5215C69.5215 15.5326 69.4141 15.0312 69.1992 14.5625C68.9844 14.0938 68.6882 13.6868 68.3105 13.3418C67.9264 13.0033 67.4707 12.7363 66.9434 12.541C66.4225 12.3392 65.8496 12.2383 65.2246 12.2383C64.4238 12.2383 63.724 12.3815 63.125 12.668C62.526 12.9544 62.028 13.3385 61.6309 13.8203C61.2272 14.3086 60.9245 14.8717 60.7227 15.5098C60.5208 16.1478 60.4199 16.8151 60.4199 17.5117V17.9219C60.4199 18.625 60.5208 19.2956 60.7227 19.9336C60.9245 20.5651 61.2272 21.1217 61.6309 21.6035C62.028 22.0918 62.526 22.4792 63.125 22.7656C63.724 23.0521 64.4238 23.1953 65.2246 23.1953C65.7845 23.1953 66.3216 23.1009 66.8359 22.9121C67.3503 22.7168 67.806 22.4564 68.2031 22.1309C68.6003 21.8118 68.916 21.4408 69.1504 21.0176C69.3913 20.5879 69.515 20.1387 69.5215 19.6699H67.8125C67.806 19.9629 67.7279 20.2363 67.5781 20.4902C67.4349 20.7376 67.2428 20.9525 67.002 21.1348C66.7611 21.3236 66.4844 21.4701 66.1719 21.5742C65.8659 21.6784 65.5501 21.7305 65.2246 21.7305ZM77.4023 23.1953C78.431 23.1953 79.2936 22.9902 79.9902 22.5801C80.6934 22.1634 81.2207 21.6882 81.5723 21.1543L80.4688 20.2949C80.1367 20.7246 79.7201 21.0697 79.2188 21.3301C78.7174 21.5905 78.1445 21.7207 77.5 21.7207C77.0117 21.7207 76.5658 21.6296 76.1621 21.4473C75.7585 21.265 75.4134 21.0143 75.127 20.6953C74.847 20.3958 74.6257 20.0508 74.4629 19.6602C74.3066 19.2695 74.2057 18.8171 74.1602 18.3027V18.2344H81.709V17.4238C81.709 16.6882 81.6146 16.0046 81.4258 15.373C81.2435 14.7415 80.9635 14.1914 80.5859 13.7227C80.2083 13.2604 79.7331 12.8991 79.1602 12.6387C78.5938 12.3717 77.9297 12.2383 77.168 12.2383C76.5625 12.2383 75.9701 12.362 75.3906 12.6094C74.8177 12.8568 74.3066 13.2116 73.8574 13.6738C73.4017 14.1426 73.0371 14.7155 72.7637 15.3926C72.4902 16.0632 72.3535 16.8249 72.3535 17.6777V18.0879C72.3535 18.8236 72.4772 19.5039 72.7246 20.1289C72.972 20.7539 73.3171 21.2943 73.7598 21.75C74.2025 22.2057 74.7331 22.5605 75.3516 22.8145C75.9766 23.0684 76.6602 23.1953 77.4023 23.1953ZM77.168 13.7227C77.6302 13.7227 78.0273 13.8073 78.3594 13.9766C78.6979 14.1458 78.9779 14.3672 79.1992 14.6406C79.4206 14.9141 79.5931 15.2396 79.7168 15.6172C79.8405 15.9883 79.9023 16.3366 79.9023 16.6621V16.75H74.2188C74.2904 16.2617 74.4141 15.832 74.5898 15.4609C74.7721 15.0833 74.9935 14.7643 75.2539 14.5039C75.5143 14.25 75.8073 14.0579 76.1328 13.9277C76.4583 13.791 76.8034 13.7227 77.168 13.7227ZM89.0234 9.875H87.207V12.4336H84.4336V13.8301H87.207V19.5723C87.207 20.2233 87.2917 20.7799 87.4609 21.2422C87.6367 21.6979 87.8743 22.069 88.1738 22.3555C88.4733 22.6484 88.8249 22.8633 89.2285 23C89.6387 23.1302 90.0781 23.1953 90.5469 23.1953C90.8268 23.1953 91.1068 23.1823 91.3867 23.1562C91.6732 23.1302 91.9434 23.0911 92.1973 23.0391C92.4512 22.9935 92.6855 22.9382 92.9004 22.873C93.1152 22.8014 93.2975 22.7201 93.4473 22.6289L93.1934 21.3496C93.0827 21.3757 92.9395 21.4082 92.7637 21.4473C92.5944 21.4798 92.4121 21.5124 92.2168 21.5449C92.015 21.5775 91.8099 21.6068 91.6016 21.6328C91.3932 21.6523 91.1914 21.6621 90.9961 21.6621C90.7292 21.6621 90.4753 21.6296 90.2344 21.5645C90 21.4993 89.7917 21.3854 89.6094 21.2227C89.4271 21.0664 89.2839 20.8548 89.1797 20.5879C89.0755 20.321 89.0234 19.9824 89.0234 19.5723V13.8301H93.0469V12.4336H89.0234V9.875ZM103.779 20.1973C103.779 20.3665 103.747 20.526 103.682 20.6758C103.617 20.8255 103.522 20.9622 103.398 21.0859C103.197 21.2878 102.917 21.4473 102.559 21.5645C102.201 21.6751 101.781 21.7305 101.299 21.7305C100.993 21.7305 100.684 21.6979 100.371 21.6328C100.059 21.5677 99.7754 21.457 99.5215 21.3008C99.2611 21.1445 99.043 20.9395 98.8672 20.6855C98.6979 20.4316 98.6003 20.1191 98.5742 19.748H96.7676C96.7676 20.1973 96.8685 20.6302 97.0703 21.0469C97.2786 21.4635 97.5781 21.8281 97.9688 22.1406C98.3529 22.4596 98.8249 22.7168 99.3848 22.9121C99.9447 23.1009 100.583 23.1953 101.299 23.1953C101.924 23.1953 102.5 23.1204 103.027 22.9707C103.555 22.821 104.007 22.6094 104.385 22.3359C104.762 22.0625 105.055 21.7337 105.264 21.3496C105.479 20.9655 105.586 20.5391 105.586 20.0703C105.586 19.6341 105.492 19.25 105.303 18.918C105.12 18.5859 104.854 18.293 104.502 18.0391C104.15 17.7917 103.717 17.5801 103.203 17.4043C102.689 17.222 102.106 17.0625 101.455 16.9258C100.96 16.8281 100.55 16.7272 100.225 16.623C99.9056 16.5189 99.6517 16.4017 99.4629 16.2715C99.2676 16.1413 99.1309 15.9948 99.0527 15.832C98.9746 15.6693 98.9355 15.4837 98.9355 15.2754C98.9355 15.0736 98.9844 14.8783 99.082 14.6895C99.1797 14.5007 99.3262 14.3346 99.5215 14.1914C99.7103 14.0482 99.9479 13.9342 100.234 13.8496C100.527 13.765 100.866 13.7227 101.25 13.7227C101.621 13.7227 101.953 13.7747 102.246 13.8789C102.546 13.9831 102.799 14.1198 103.008 14.2891C103.216 14.4583 103.379 14.6536 103.496 14.875C103.613 15.0898 103.672 15.3112 103.672 15.5391H105.479C105.479 15.0768 105.378 14.6471 105.176 14.25C104.98 13.8464 104.701 13.4948 104.336 13.1953C103.971 12.8958 103.529 12.6615 103.008 12.4922C102.487 12.3229 101.901 12.2383 101.25 12.2383C100.645 12.2383 100.088 12.3197 99.5801 12.4824C99.0788 12.6452 98.6458 12.8665 98.2812 13.1465C97.9167 13.4264 97.6335 13.7552 97.4316 14.1328C97.2298 14.5039 97.1289 14.9043 97.1289 15.334C97.1289 15.7702 97.2266 16.1543 97.4219 16.4863C97.6172 16.8118 97.8939 17.0951 98.252 17.3359C98.6035 17.5833 99.0267 17.7949 99.5215 17.9707C100.023 18.1465 100.576 18.2962 101.182 18.4199C101.676 18.5176 102.09 18.6283 102.422 18.752C102.754 18.8691 103.021 18.9993 103.223 19.1426C103.424 19.2858 103.568 19.4453 103.652 19.6211C103.737 19.7904 103.779 19.9824 103.779 20.1973ZM111.914 21.8281C111.914 22.2057 112.031 22.528 112.266 22.7949C112.507 23.0553 112.861 23.1855 113.33 23.1855C113.792 23.1855 114.147 23.0553 114.395 22.7949C114.642 22.5345 114.766 22.2122 114.766 21.8281C114.766 21.4375 114.642 21.1087 114.395 20.8418C114.154 20.5684 113.799 20.4316 113.33 20.4316C112.855 20.4316 112.5 20.5684 112.266 20.8418C112.031 21.1152 111.914 21.444 111.914 21.8281ZM121.611 12.4336H119.99V23H121.709V14.5918C121.748 14.4876 121.797 14.39 121.855 14.2988C121.921 14.2077 121.995 14.1263 122.08 14.0547C122.191 13.9635 122.324 13.8952 122.48 13.8496C122.643 13.7975 122.832 13.7715 123.047 13.7715C123.242 13.7715 123.411 13.7975 123.555 13.8496C123.704 13.8952 123.828 13.9701 123.926 14.0742C124.03 14.1849 124.105 14.3249 124.15 14.4941C124.202 14.6634 124.229 14.8587 124.229 15.0801V23H125.947V15.0898C125.947 15.0508 125.947 15.0182 125.947 14.9922C125.947 14.9596 125.947 14.9271 125.947 14.8945C125.967 14.7318 126.006 14.5853 126.064 14.4551C126.123 14.3184 126.204 14.1979 126.309 14.0938C126.413 13.9961 126.543 13.918 126.699 13.8594C126.855 13.8008 127.041 13.7715 127.256 13.7715C127.458 13.7715 127.633 13.7975 127.783 13.8496C127.939 13.9017 128.07 13.9798 128.174 14.084C128.271 14.1947 128.346 14.3346 128.398 14.5039C128.451 14.6732 128.477 14.8685 128.477 15.0898V23H130.195V15.1094C130.195 14.6016 130.137 14.1621 130.02 13.791C129.902 13.4134 129.733 13.1074 129.512 12.873C129.31 12.6647 129.062 12.5085 128.77 12.4043C128.477 12.2936 128.148 12.2383 127.783 12.2383C127.516 12.2448 127.269 12.2806 127.041 12.3457C126.82 12.4108 126.618 12.4987 126.436 12.6094C126.292 12.707 126.159 12.821 126.035 12.9512C125.911 13.0814 125.804 13.2214 125.713 13.3711C125.641 13.2083 125.553 13.0618 125.449 12.9316C125.352 12.8014 125.241 12.6908 125.117 12.5996C124.948 12.4824 124.749 12.3945 124.521 12.3359C124.3 12.2708 124.049 12.2383 123.77 12.2383C123.275 12.2448 122.852 12.3522 122.5 12.5605C122.155 12.7689 121.875 13.0586 121.66 13.4297L121.611 12.4336ZM137.461 23.1953C138.49 23.1953 139.352 22.9902 140.049 22.5801C140.752 22.1634 141.279 21.6882 141.631 21.1543L140.527 20.2949C140.195 20.7246 139.779 21.0697 139.277 21.3301C138.776 21.5905 138.203 21.7207 137.559 21.7207C137.07 21.7207 136.624 21.6296 136.221 21.4473C135.817 21.265 135.472 21.0143 135.186 20.6953C134.906 20.3958 134.684 20.0508 134.521 19.6602C134.365 19.2695 134.264 18.8171 134.219 18.3027V18.2344H141.768V17.4238C141.768 16.6882 141.673 16.0046 141.484 15.373C141.302 14.7415 141.022 14.1914 140.645 13.7227C140.267 13.2604 139.792 12.8991 139.219 12.6387C138.652 12.3717 137.988 12.2383 137.227 12.2383C136.621 12.2383 136.029 12.362 135.449 12.6094C134.876 12.8568 134.365 13.2116 133.916 13.6738C133.46 14.1426 133.096 14.7155 132.822 15.3926C132.549 16.0632 132.412 16.8249 132.412 17.6777V18.0879C132.412 18.8236 132.536 19.5039 132.783 20.1289C133.031 20.7539 133.376 21.2943 133.818 21.75C134.261 22.2057 134.792 22.5605 135.41 22.8145C136.035 23.0684 136.719 23.1953 137.461 23.1953ZM137.227 13.7227C137.689 13.7227 138.086 13.8073 138.418 13.9766C138.757 14.1458 139.036 14.3672 139.258 14.6406C139.479 14.9141 139.652 15.2396 139.775 15.6172C139.899 15.9883 139.961 16.3366 139.961 16.6621V16.75H134.277C134.349 16.2617 134.473 15.832 134.648 15.4609C134.831 15.0833 135.052 14.7643 135.312 14.5039C135.573 14.25 135.866 14.0579 136.191 13.9277C136.517 13.791 136.862 13.7227 137.227 13.7227Z" fill="white"/>
</svg>
